{"extensionsUsed" : ["KHR_materials_pbrSpecularGlossiness"], "accessors" : [{"bufferView" : 0, "byteOffset" : 0, "componentType" : 5123, "count" : 9600, "type" : "SCALAR", "max" : [9599], "min" : [0]}, {"bufferView" : 1, "byteOffset" : 0, "componentType" : 5126, "count" : 9600, "type" : "VEC3", "max" : [1.5844930410385132, 6.834309101104736, -0.14552900195121765], "min" : [-1.581820011138916, 3.5808799266815186, -0.3970870077610016], "name" : "POSITION"}, {"bufferView" : 1, "byteOffset" : 12, "componentType" : 5126, "count" : 9600, "type" : "VEC3", "max" : [1.0000044107437134, 1.0000044107437134, 1.0000044107437134], "min" : [-1.0000044107437134, -1.0000044107437134, -1.0000044107437134], "name" : "NORMAL"}, {"bufferView" : 1, "byteOffset" : 24, "componentType" : 5126, "count" : 9600, "type" : "VEC2", "max" : [0.9928849935531616, 1], "min" : [0, 0], "name" : "TEXCOORD_0"}], "asset" : {"generator" : "Aspose.3D 21.12", "version" : "2.0"}, "buffers" : [{"uri" : "data:application/octet-stream;base64,", "byteLength" : 326408}], "bufferViews" : [{"buffer" : 0, "byteOffset" : 0, "byteLength" : 19200, "target" : 34963}, {"buffer" : 0, "byteOffset" : 19204, "byteLength" : 307200, "byteStride" : 32, "target" : 34962}], "materials" : [{"name" : "", "extensions" : {"KHR_materials_pbrSpecularGlossiness" : {"diffuseFactor" : [1, 0, 0, 1], "specularFactor" : [0.2195197343826294, 0.2195197343826294, 0.2195197343826294], "glossinessFactor" : 1}}, "pbrMetallicRoughness" : {"baseColorFactor" : [1, 1, 1, 1], "metallicFactor" : 1, "roughnessFactor" : 1}, "emissiveFactor" : [0, 0, 0], "alphaMode" : "OPAQUE", "doubleSided" : true}], "meshes" : [{"primitives" : [{"attributes" : {"POSITION" : 1, "NORMAL" : 2, "TEXCOORD_0" : 3}, "indices" : 0, "material" : 0, "mode" : 4}]}], "nodes" : [{"mesh" : 0, "name" : "Asset3DLoader.sceneRoot"}], "scene" : 0, "scenes" : [{"nodes" : [0]}]}